<?xml version="1.0" encoding="iso-8859-1"?>
<!-- Uploaded to: SVG Repo, www.svgrepo.com, Generator: SVG Repo Mixer Tools -->
<svg fill="#000000" height="800px" width="800px" version="1.1" id="Layer_1" xmlns="http://www.w3.org/2000/svg" xmlns:xlink="http://www.w3.org/1999/xlink" 
	 viewBox="0 0 512 512" xml:space="preserve">
<g>
	<g>
		<path d="M446.64,373.526l-7.518-28.019c-4.057-15.12-17.956-25.69-33.466-25.775c4.041-7.198,7.349-14.825,9.872-22.851
			c11.371-36.137,6.537-77.689-14.363-123.501C342.668,45.165,262.549,10.084,230.808,0.95c-8.546-2.458-18.133-0.136-24.608,6.825
			c-6.312,6.774-8.249,16.381-5.052,25.07c5.702,15.503,13.123,57.762-41.027,115.194c-36.648,38.869-56.82,88.345-53.96,132.352
			c0.82,12.619,3.495,24.483,7.873,35.439l-2.141-0.435c-2.863-0.582-5.79-0.805-8.695-0.663
			c-16.014,0.78-29.432,12.305-32.629,28.027l-5.692,28.004c-3.86,18.979,8.376,37.464,27.359,41.325l14.863,3.022
			c-7.733,6.378-12.767,15.922-13.059,26.561l-0.747,27.25c-0.54,19.727,14.985,36.131,34.713,36.67l233.307,6.399
			c19.859,0.525,36.137-15.331,36.669-34.713l0.747-27.251c0.264-9.623-3.333-18.467-9.371-25.063l32.671-8.766
			C440.575,411.217,451.618,392.078,446.64,373.526z M187.8,174.135c49.64-52.649,57.412-98.249,54.831-127.862
			c11.219,5.478,24.827,13.686,39.495,25.904c33.235,27.682,61.64,67.045,84.429,116.994
			c30.891,67.712,18.463,121.863-34.045,148.881l-0.505,0.136c1.269-4.057,2.355-8.202,3.151-12.397
			c5.356-28.202-3.372-51.716-24.575-66.211c-21.813-14.912-24.15-36.063-22.271-51.175c1.207-9.698-3.463-19.153-11.898-24.091
			c-8.376-4.902-18.928-4.403-26.83,1.429c-24.188,17.852-64.055,55.067-59.301,103.734c1.454,14.89,4.97,29.587,10.463,43.982
			l-34.256-6.964c-13.562-12.483-21.08-28.799-22.365-48.571C141.935,244.261,158.263,205.462,187.8,174.135z M285.087,350.603
			c-15.269-3.104-13.632-2.771-37.697-7.663c-11.009-18.69-17.323-37.461-19.247-57.162c-1.911-19.565,10.375-37.835,23.299-51.312
			c4.415,22.877,17.385,42.651,37.669,56.518C307.703,303.694,294.891,333.346,285.087,350.603z M102.753,375.404l4.5-22.134
			l46.774,9.509c0.001,0,0.003,0.001,0.004,0.001l49.111,9.985l-44.51,13.999L102.753,375.404z M360.016,473.895l-228.631-6.271
			l0.619-22.577c5.104,0.139,227.299,6.233,228.631,6.269L360.016,473.895z M293.065,411.408l-79.067-2.168
			c5.895-1.583,176.511-47.362,189.213-50.771l5.853,21.813L293.065,411.408z"/>
	</g>
</g>
</svg>